<?xml version="1.0" standalone="no"?>
<!DOCTYPE svg PUBLIC "-//W3C//DTD SVG 20010904//EN"
 "http://www.w3.org/TR/2001/REC-SVG-20010904/DTD/svg10.dtd">
<svg version="1.0" xmlns="http://www.w3.org/2000/svg"
 width="841.000000pt" height="841.000000pt" viewBox="0 0 841.000000 841.000000"
 preserveAspectRatio="xMidYMid meet">

<g transform="translate(0.000000,841.000000) scale(0.100000,-0.100000)"
fill="#000000" stroke="none">
<path d="M497 7218 c-4 -656 -10 -1241 -14 -1300 l-6 -108 -207 0 c-209 0
-270 -5 -270 -22 0 -5 100 -8 239 -6 l239 3 4 -60 c2 -33 0 -211 -5 -395 -4
-184 -9 -1028 -10 -1875 l-2 -1540 -29 -65 c-16 -36 -46 -112 -66 -170 l-38
-105 -166 -3 c-158 -2 -166 -3 -166 -22 0 -19 7 -20 155 -20 180 0 168 12 131
-130 l-21 -85 -118 -3 c-108 -2 -118 -1 -115 15 2 10 -4 19 -14 21 -15 3 -18
-4 -18 -41 l0 -44 81 -6 c46 -4 89 -2 98 3 11 6 -13 9 -76 10 -60 0 -93 4 -93
11 0 12 223 9 235 -3 4 -4 -2 -67 -14 -140 -11 -73 -23 -184 -27 -246 l-7
-114 -96 4 -97 3 -1 -98 c0 -53 1 -96 3 -94 2 1 10 16 19 32 l17 30 -6 -34
c-4 -19 -13 -42 -22 -52 -9 -10 -14 -28 -12 -41 3 -21 6 -19 37 22 32 43 33
48 28 118 l-4 73 71 -3 71 -3 8 -90 c9 -99 43 -244 83 -356 14 -39 23 -74 19
-77 -15 -15 -191 -4 -252 16 -47 15 -63 17 -63 7 0 -12 19 -22 89 -44 19 -6
82 -11 141 -11 105 0 107 -1 118 -25 11 -23 9 -27 -16 -36 -52 -21 -211 4
-290 45 -38 19 -42 20 -42 3 0 -14 65 -47 135 -68 36 -11 181 -16 229 -7 12 2
24 -8 36 -29 28 -52 41 -63 71 -63 16 0 29 2 29 5 0 2 -14 28 -31 56 -153 260
-206 476 -196 799 8 262 48 471 143 756 72 215 139 364 288 642 89 164 305
463 537 740 130 157 230 330 310 542 37 98 78 200 92 226 37 75 153 561 227
952 92 487 135 674 197 867 50 155 56 166 93 158 41 -8 38 7 -10 59 -85 90
-150 241 -150 346 0 69 24 126 74 176 47 47 101 73 266 130 155 54 268 106
358 166 68 46 93 77 68 86 -17 6 -56 -13 -148 -73 -64 -41 -117 -67 -124 -60
-10 9 167 246 227 305 75 73 138 68 323 -23 158 -79 281 -175 358 -281 90
-125 158 -297 158 -399 0 -76 -22 -90 -128 -82 -42 3 -90 10 -107 16 -248 78
-329 99 -475 126 -247 44 -444 13 -536 -87 -55 -58 -87 -138 -74 -187 9 -37
27 -36 35 1 19 98 63 156 151 199 58 29 75 32 182 37 177 7 248 -7 704 -138
111 -32 168 -35 221 -12 25 11 53 32 62 46 47 71 -11 300 -114 459 -58 88
-144 177 -236 242 l-68 49 64 29 c201 90 405 140 638 158 459 35 879 -46 1281
-248 209 -105 321 -178 424 -274 l77 -72 122 -18 c390 -58 605 -158 810 -379
81 -87 153 -187 143 -197 -3 -4 -75 -1 -159 6 -352 28 -404 32 -434 37 l-31 5
-4 98 c-3 95 -17 139 -39 125 -5 -3 -9 -53 -9 -111 0 -146 -40 -284 -100 -348
l-22 -24 -47 62 c-116 155 -316 324 -463 391 l-53 24 38 1 c78 2 115 87 63
147 -18 21 -32 28 -61 28 -72 0 -109 -81 -64 -138 25 -32 20 -43 -12 -25 -13
7 -60 13 -105 13 -77 1 -84 -1 -120 -30 -22 -17 -53 -52 -71 -79 -72 -109
-211 -477 -337 -895 -28 -93 -48 -238 -40 -289 5 -33 5 -33 -28 -26 -37 8 -50
20 -84 88 -65 127 -263 316 -411 394 -107 55 -156 28 -53 -29 151 -84 328
-246 400 -368 111 -186 152 -456 101 -662 -17 -71 -117 -253 -194 -353 -84
-110 -197 -231 -297 -317 -51 -44 -62 -59 -53 -69 9 -9 19 -9 45 2 40 17 242
210 311 299 28 36 54 69 57 73 4 4 222 -46 485 -113 470 -118 512 -132 555
-179 27 -30 85 -71 100 -71 10 0 47 22 82 48 35 27 196 138 358 247 162 110
369 250 460 311 401 272 482 325 487 320 11 -11 -19 -314 -47 -483 -66 -384
-153 -725 -272 -1068 -90 -260 -179 -469 -365 -860 -202 -423 -262 -528 -492
-855 -334 -476 -613 -806 -878 -1040 l-83 -72 0 33 c0 19 20 164 45 324 47
305 50 332 36 354 -15 23 -30 -20 -57 -157 -26 -134 -95 -604 -90 -609 2 -2
95 -2 207 -1 l204 3 -92 61 -92 61 67 66 c37 37 70 67 74 67 4 0 26 -59 50
-130 l42 -130 362 0 361 0 2 243 c1 133 6 287 9 342 l7 100 185 -3 c102 -1
318 1 480 5 l295 7 -465 13 c-256 6 -471 10 -479 7 -12 -4 -13 44 -9 308 6
349 0 321 85 451 l45 67 1144 0 1144 0 0 26 0 27 -277 -4 c-153 -2 -661 -2
-1130 -1 l-852 2 84 163 c45 89 129 265 186 391 l103 229 943 -7 c929 -7 943
-7 943 12 0 19 -17 20 -785 27 -432 4 -852 6 -935 3 -82 -2 -150 -3 -150 -1 0
1 6 14 12 29 l13 27 135 -7 c74 -4 489 -9 923 -12 l787 -5 0 20 c0 21 -1 21
-532 22 -572 0 -1284 12 -1293 21 -3 3 12 47 34 99 49 118 141 374 186 516 38
120 123 454 154 608 35 168 81 503 88 632 5 94 10 126 22 137 9 7 149 103 311
211 162 109 310 212 328 229 18 17 57 78 86 136 90 178 138 358 137 515 0 117
-24 176 -81 205 -49 25 -60 25 -105 -2 -46 -26 -57 -26 -435 7 -360 31 -410
35 -454 35 -44 0 -46 1 -70 48 -26 52 -132 186 -190 241 l-36 35 1 270 c0 246
12 781 24 1126 12 348 14 474 8 660 l-6 200 -23 0 -23 0 -4 -432 c-4 -436 -25
-1713 -30 -1756 -2 -21 -5 -20 -62 23 -87 65 -292 158 -397 179 -16 4 -39 8
-53 11 l-24 5 5 708 c4 389 7 718 7 732 0 14 0 139 -1 278 -2 245 -3 252 -22
252 -19 0 -20 -7 -21 -120 -1 -66 -3 -124 -4 -130 -1 -5 -3 -391 -4 -856 l-1
-846 -37 6 c-21 3 -60 8 -88 11 -83 9 -123 24 -158 58 -52 52 -146 126 -222
175 -38 25 -72 48 -75 51 -3 3 -35 22 -72 41 -74 39 -74 41 -14 99 l35 34 28
-18 c37 -24 129 -117 126 -127 -2 -4 0 -7 5 -5 6 2 98 -67 112 -84 3 -4 32
-23 65 -43 75 -45 127 -48 167 -11 40 37 51 93 45 215 -6 107 -30 200 -80 308
-98 210 -295 332 -464 288 -34 -9 -73 -16 -87 -16 -14 0 -26 -4 -26 -10 0 -5
-16 -12 -35 -16 -19 -3 -47 -16 -62 -27 l-26 -21 -86 22 c-47 12 -109 25 -138
28 l-52 6 5 47 c2 25 6 247 7 494 2 335 -1 447 -10 447 -16 0 -22 -104 -29
-575 -4 -294 -9 -412 -17 -417 -7 -4 -23 -4 -36 -1 -17 4 -22 2 -17 -6 4 -6 1
-11 -7 -11 -25 0 -137 -79 -189 -133 -28 -29 -55 -51 -60 -49 -5 1 -8 -3 -6
-10 2 -6 -10 -34 -28 -61 l-32 -49 -279 -3 c-153 -2 -294 -6 -313 -9 -19 -3
-71 -12 -115 -19 -44 -7 -87 -16 -95 -20 -8 -3 -44 -14 -80 -23 -36 -9 -69
-21 -74 -25 -32 -29 -32 9 4 256 10 72 22 159 25 195 4 36 29 222 56 415 54
377 70 545 51 545 -15 0 -20 -24 -27 -145 -6 -107 -56 -474 -80 -590 -8 -38
-15 -89 -15 -112 0 -23 -5 -45 -10 -48 -6 -4 -8 -10 -5 -15 6 -9 -5 -99 -25
-210 -5 -30 -12 -73 -14 -94 -3 -22 -7 -60 -10 -85 -3 -25 -7 -65 -8 -88 -2
-37 -6 -44 -31 -53 -16 -5 -33 -7 -38 -4 -5 3 -9 1 -9 -4 0 -9 -40 -25 -65
-26 -5 -1 -13 -5 -17 -11 -5 -6 -8 -5 -8 3 0 6 -5 12 -11 12 -6 0 -8 -7 -5
-16 4 -10 0 -15 -12 -13 -32 3 -43 -1 -36 -13 5 -7 2 -9 -7 -6 -90 38 -125 53
-129 58 -3 3 -42 14 -87 25 -72 16 -88 17 -125 5 -24 -7 -52 -14 -63 -15 -11
-1 -20 -8 -20 -16 -1 -8 -6 -13 -13 -12 -6 2 -9 -4 -6 -12 4 -8 2 -15 -4 -15
-5 0 -35 -35 -67 -77 -32 -43 -71 -95 -87 -115 -15 -20 -28 -42 -28 -48 0 -6
-4 -9 -9 -6 -4 3 -6 396 -3 876 l5 870 -145 0 -145 0 -7 -352 c-3 -194 -9
-632 -12 -973 l-5 -620 -27 -22 c-15 -13 -32 -23 -38 -23 -22 0 -116 -113
-141 -169 -23 -50 -25 -64 -20 -134 5 -64 14 -95 47 -165 23 -48 53 -102 67
-120 28 -37 31 -19 -37 -202 -30 -81 -79 -268 -115 -432 -9 -43 -18 -78 -21
-78 -2 0 -2 28 0 63 3 34 8 697 11 1472 3 776 10 1466 15 1535 5 69 10 146 10
173 l0 47 -655 0 -654 0 -5 -32 c-3 -18 -10 -607 -16 -1308 -6 -701 -15 -1615
-20 -2030 -6 -415 -15 -1249 -20 -1853 -9 -893 -13 -1105 -24 -1130 -14 -32
-14 -32 -10 18 3 28 6 761 8 1630 3 869 9 1855 15 2190 5 336 13 1039 17 1563
l7 952 -30 0 -30 0 -6 -1192z m483 111 c-5 -134 -14 -260 -19 -279 -8 -33 -9
-31 -10 23 -1 63 16 368 25 455 12 112 13 36 4 -199z m4529 39 c132 -68 236
-237 277 -448 17 -89 18 -141 4 -192 -14 -49 -35 -60 -82 -43 -47 16 -93 51
-258 198 -197 174 -300 239 -447 283 -69 20 -102 25 -153 21 -86 -7 -166 -38
-234 -91 l-55 -43 -63 12 c-72 14 -73 17 -22 86 51 70 142 149 204 177 105 49
197 41 390 -35 189 -73 248 -92 301 -94 53 -3 79 10 57 29 -8 6 -49 18 -92 27
-44 9 -111 31 -149 48 l-70 31 44 20 c63 29 134 44 215 45 62 1 79 -3 133 -31z
m-546 -243 c104 -27 287 -122 287 -149 0 -6 -14 -27 -31 -46 -17 -19 -37 -44
-45 -54 -13 -19 -15 -19 -81 8 -147 61 -246 96 -340 121 -151 40 -138 35 -116
50 70 49 164 83 233 84 20 1 61 -6 93 -14z m-3962 -782 l-10 -48 4 55 c3 30 6
105 7 165 l2 110 3 -117 c2 -64 -1 -139 -6 -165z m4279 -274 c80 -17 208 -81
296 -147 101 -76 208 -187 198 -204 -4 -7 -3 -10 1 -5 5 4 17 0 27 -10 19 -17
25 -39 8 -28 -6 3 -7 -1 -4 -9 7 -19 24 -21 25 -3 0 6 5 2 11 -10 6 -13 14
-23 19 -23 4 0 12 -13 18 -30 6 -20 7 -30 0 -30 -6 0 -7 -4 -4 -10 3 -5 14
-10 24 -10 10 0 27 -17 39 -39 24 -42 29 -66 8 -39 -7 9 -22 16 -34 15 -24 -1
-25 -18 -2 -25 9 -3 10 0 4 9 -4 8 5 3 21 -9 50 -40 62 -90 39 -174 -5 -18
-114 -93 -176 -121 -20 -10 -44 -14 -55 -11 -13 4 -14 3 -5 -4 17 -12 -89 -65
-131 -65 -15 0 -23 -3 -17 -7 6 -4 -9 -15 -32 -25 -24 -9 -53 -22 -66 -28 -18
-9 -26 -8 -34 3 -8 13 -9 12 -5 -1 5 -14 -19 -26 -117 -63 -67 -25 -127 -46
-133 -46 -5 0 -25 -7 -43 -16 -28 -14 -36 -15 -54 -4 -19 12 -20 12 -7 -3 12
-15 11 -17 -10 -17 -13 -1 -35 -7 -49 -15 -34 -19 -50 -18 -25 2 18 14 18 15
2 9 -10 -3 -29 -6 -42 -6 -14 0 -25 -7 -28 -20 -6 -23 -37 -27 -37 -5 0 8 -4
15 -9 15 -5 0 -14 -7 -21 -15 -10 -12 -9 -15 6 -16 11 -1 1 -5 -20 -10 -42
-10 -115 -7 -136 6 -12 8 -9 107 6 173 12 55 65 238 74 257 5 11 23 65 41 120
17 55 35 108 40 117 5 10 9 27 9 37 0 11 5 23 10 26 6 3 10 12 10 19 0 8 8 31
17 52 9 22 18 44 19 49 1 6 12 33 22 60 11 28 26 66 34 85 7 19 18 38 23 42 6
4 7 8 2 8 -14 0 63 140 78 140 7 0 17 5 21 12 5 7 3 8 -7 3 -8 -5 -5 1 5 14
11 12 26 19 33 17 7 -3 12 -2 12 2 -4 26 20 28 101 11z m1011 -219 c57 -5 275
-23 484 -40 209 -17 452 -38 540 -47 88 -8 180 -17 205 -18 25 -1 67 -2 93 -3
27 -1 47 -6 45 -11 -1 -5 -79 -61 -173 -123 -93 -63 -273 -184 -399 -269 -126
-84 -286 -192 -357 -239 -70 -47 -309 -207 -531 -356 -509 -342 -601 -388
-692 -350 -21 9 -49 16 -62 16 -24 0 -209 40 -394 85 -58 15 -127 30 -155 36
-27 5 -91 19 -142 30 l-92 21 -6 42 c-4 22 -13 63 -21 90 -8 27 -14 51 -14 53
0 3 21 2 48 -1 148 -18 178 -18 257 0 44 10 95 18 114 17 18 0 28 3 22 7 -12
7 11 17 139 60 166 57 298 109 453 181 213 98 282 137 344 193 77 70 78 129 5
289 l-35 77 23 22 c26 24 97 169 106 217 6 29 10 31 49 31 23 0 88 -4 146 -10z
m1567 -102 c81 -87 39 -402 -89 -663 -62 -129 -16 -92 -679 -536 -151 -101
-279 -188 -285 -192 -43 -34 -413 -286 -760 -517 -27 -19 -107 -73 -176 -122
-69 -48 -131 -88 -138 -88 -19 0 -13 26 28 117 22 49 54 144 71 212 26 103 32
145 33 250 2 131 -6 169 -45 221 -19 24 -19 24 4 42 19 16 89 64 149 103 52
34 178 117 539 358 223 149 475 317 560 373 85 57 178 119 205 138 28 19 140
94 250 165 110 72 209 137 220 145 31 23 88 20 113 -6z m-3033 -1313 c66 -14
237 -53 380 -86 280 -65 368 -78 412 -61 62 23 81 23 109 -2 26 -21 28 -29 28
-99 1 -41 -2 -78 -6 -82 -6 -7 -370 62 -874 166 -105 21 -194 39 -198 39 -9 0
-7 68 2 74 7 4 322 -58 423 -84 26 -6 57 -10 70 -8 17 3 7 8 -31 16 -30 6
-139 30 -241 52 -102 22 -193 40 -203 40 -12 0 -16 9 -16 35 0 23 4 33 13 30
6 -2 66 -15 132 -30z m92 -189 c439 -89 739 -149 781 -156 23 -4 44 -9 47 -11
2 -3 -3 -32 -11 -64 -9 -33 -18 -72 -21 -87 -9 -48 -22 -51 -130 -28 -108 23
-644 130 -650 130 -1 0 -3 -4 -3 -9 0 -5 12 -11 28 -14 15 -3 88 -17 162 -30
157 -30 527 -105 552 -113 16 -5 16 -8 1 -47 -30 -76 -73 -137 -96 -137 -12 0
-44 15 -72 34 -38 26 -83 43 -190 69 -77 19 -214 54 -305 77 -91 23 -230 57
-310 77 -80 20 -148 39 -153 43 -4 3 15 55 43 114 40 86 54 106 68 102 9 -2
55 -12 102 -21 47 -9 112 -23 145 -32 80 -20 215 -42 215 -34 0 5 -301 73
-428 98 -38 7 -47 21 -38 58 4 16 13 25 25 25 11 0 117 -20 238 -44z m-4208
-1690 c1 -112 -2 -177 -9 -181 -7 -4 -10 52 -10 174 0 100 4 181 9 181 5 0 9
-78 10 -174z m5236 -1358 c-2 -29 -9 -231 -15 -448 -14 -517 -16 -549 -37
-572 -71 -78 -421 -165 -553 -137 -58 12 -58 13 -101 145 -17 54 -33 104 -36
110 -2 7 40 61 94 120 158 175 302 361 543 702 51 72 97 132 102 132 4 0 6
-24 3 -52z"/>
<path d="M5113 5938 c-26 -13 -30 -28 -7 -28 21 0 54 18 54 30 0 13 -19 12
-47 -2z"/>
<path d="M5544 5921 c21 -23 26 -26 26 -11 0 5 -10 15 -22 21 -23 12 -23 12
-4 -10z"/>
<path d="M5039 5829 c-9 -11 -15 -29 -12 -40 8 -30 23 -23 23 11 0 17 5 30 10
30 6 0 10 5 10 10 0 16 -14 11 -31 -11z"/>
<path d="M5505 5783 c-11 -3 -24 -9 -29 -14 -11 -10 -14 -139 -3 -132 4 2 11
-6 16 -19 5 -13 25 -52 45 -86 38 -68 42 -77 26 -67 -5 3 -10 1 -10 -5 0 -7 7
-10 15 -7 9 4 22 -5 35 -23 12 -17 17 -30 11 -30 -6 0 -8 -7 -5 -15 4 -8 10
-15 16 -15 5 0 6 5 3 10 -10 16 11 11 25 -6 21 -24 72 -14 87 16 10 21 9 38
-1 84 -8 32 -19 63 -25 69 -6 6 -11 19 -11 28 0 10 -13 38 -30 62 -16 25 -30
48 -30 52 0 3 -6 12 -13 20 -7 7 -25 26 -39 43 -27 32 -51 42 -83 35z"/>
<path d="M5010 5750 c0 -11 5 -20 10 -20 6 0 10 9 10 20 0 11 -4 20 -10 20 -5
0 -10 -9 -10 -20z"/>
<path d="M5010 5700 c0 -5 5 -10 10 -10 6 0 10 5 10 10 0 6 -4 10 -10 10 -5 0
-10 -4 -10 -10z"/>
<path d="M5125 5700 c3 -5 10 -10 16 -10 5 0 9 5 9 10 0 6 -7 10 -16 10 -8 0
-12 -4 -9 -10z"/>
<path d="M5107 5660 c-8 -12 -17 -18 -19 -13 -3 4 -3 2 -2 -5 5 -18 -32 -108
-38 -92 -2 7 -4 -4 -5 -26 0 -21 -5 -55 -11 -74 -58 -193 -65 -262 -32 -298
45 -48 103 -16 155 87 18 37 41 95 49 128 19 72 20 223 2 273 -11 29 -18 35
-48 38 -28 2 -39 -2 -51 -18z"/>
<path d="M5440 5670 c-13 -8 -12 -10 3 -10 9 0 17 5 17 10 0 12 -1 12 -20 0z"/>
<path d="M5250 5591 c0 -55 16 -60 19 -5 1 25 -2 44 -9 44 -5 0 -10 -18 -10
-39z"/>
<path d="M4960 5585 c0 -9 6 -12 15 -9 8 4 15 7 15 9 0 2 -7 5 -15 9 -9 3 -15
0 -15 -9z"/>
<path d="M4927 5560 c-7 -26 -4 -34 11 -29 4 2 5 15 2 29 l-6 25 -7 -25z"/>
<path d="M4990 5531 c0 -10 6 -21 13 -24 10 -4 13 2 9 19 -5 28 -22 32 -22 5z"/>
<path d="M5868 5523 c6 -2 18 -2 25 0 6 3 1 5 -13 5 -14 0 -19 -2 -12 -5z"/>
<path d="M4990 5481 c0 -5 7 -11 14 -14 10 -4 13 -1 9 9 -6 15 -23 19 -23 5z"/>
<path d="M5750 5461 c0 -5 5 -13 10 -16 6 -3 10 -2 10 4 0 5 -4 13 -10 16 -5
3 -10 2 -10 -4z"/>
<path d="M4970 5421 c0 -5 7 -12 16 -15 21 -8 24 -8 24 5 0 5 -4 7 -10 4 -5
-3 -10 -1 -10 4 0 6 -4 11 -10 11 -5 0 -10 -4 -10 -9z"/>
<path d="M5960 5380 c0 -5 5 -10 10 -10 6 0 10 5 10 10 0 6 -4 10 -10 10 -5 0
-10 -4 -10 -10z"/>
<path d="M4845 5289 c-9 -14 -2 -20 14 -10 8 6 9 11 3 15 -6 3 -14 1 -17 -5z"/>
<path d="M5182 5265 c-8 -18 -8 -26 0 -31 7 -4 8 -3 4 4 -4 7 -2 12 5 12 7 0
9 3 6 7 -4 3 -2 12 4 20 7 7 7 13 2 13 -5 0 -15 -11 -21 -25z"/>
<path d="M4810 5201 c0 -17 3 -31 6 -31 7 0 37 30 33 33 -2 2 -12 9 -21 16
-16 12 -18 10 -18 -18z"/>
<path d="M4936 5205 c-3 -8 -1 -15 4 -15 6 0 10 7 10 15 0 8 -2 15 -4 15 -2 0
-6 -7 -10 -15z"/>
<path d="M5170 5179 c0 -5 5 -7 10 -4 6 3 10 8 10 11 0 2 -4 4 -10 4 -5 0 -10
-5 -10 -11z"/>
<path d="M4790 5151 c0 -12 5 -21 10 -21 6 0 10 6 10 14 0 8 -4 18 -10 21 -5
3 -10 -3 -10 -14z"/>
<path d="M5330 5160 c0 -5 9 -10 20 -10 11 0 20 5 20 10 0 6 -9 10 -20 10 -11
0 -20 -4 -20 -10z"/>
<path d="M5059 5119 c-8 -5 -22 -6 -31 -3 -11 3 -18 0 -18 -8 0 -10 17 -14 63
-15 34 0 51 1 38 4 -16 3 -20 7 -12 13 9 5 7 9 -7 12 -11 3 -26 2 -33 -3z"/>
<path d="M5508 5053 c7 -3 16 -2 19 1 4 3 -2 6 -13 5 -11 0 -14 -3 -6 -6z"/>
<path d="M4753 4980 c0 -17 4 -30 9 -30 11 0 11 47 0 54 -5 3 -9 -8 -9 -24z"/>
<path d="M4808 4823 c7 -3 16 -2 19 1 4 3 -2 6 -13 5 -11 0 -14 -3 -6 -6z"/>
<path d="M7434 5704 c-18 -14 -18 -15 4 -4 12 6 22 13 22 15 0 8 -5 6 -26 -11z"/>
<path d="M7359 5653 c-13 -16 -12 -17 4 -4 16 13 21 21 13 21 -2 0 -10 -8 -17
-17z"/>
<path d="M7157 5525 c-20 -14 -37 -28 -37 -31 0 -2 18 8 40 22 35 23 47 34 37
34 -1 0 -19 -11 -40 -25z"/>
<path d="M7084 5474 c-18 -14 -18 -15 4 -4 12 6 22 13 22 15 0 8 -5 6 -26 -11z"/>
<path d="M7024 5434 c-18 -14 -18 -15 4 -4 12 6 22 13 22 15 0 8 -5 6 -26 -11z"/>
<path d="M6946 5385 c-11 -8 -15 -15 -9 -15 6 0 16 7 23 15 16 19 11 19 -14 0z"/>
<path d="M6158 5313 c6 -2 18 -2 25 0 6 3 1 5 -13 5 -14 0 -19 -2 -12 -5z"/>
<path d="M6223 5303 c9 -2 25 -2 35 0 9 3 1 5 -18 5 -19 0 -27 -2 -17 -5z"/>
<path d="M6448 5273 c6 -2 18 -2 25 0 6 3 1 5 -13 5 -14 0 -19 -2 -12 -5z"/>
<path d="M6696 5235 c7 -18 14 -18 38 0 19 14 18 15 -12 15 -24 0 -30 -4 -26
-15z"/>
<path d="M6509 5093 c-13 -16 -12 -17 4 -4 16 13 21 21 13 21 -2 0 -10 -8 -17
-17z"/>
<path d="M6409 5030 l-24 -21 33 16 c31 15 41 25 23 25 -5 0 -19 -9 -32 -20z"/>
<path d="M6303 4959 c-35 -22 -46 -37 -15 -20 22 13 58 40 52 41 -3 0 -20 -10
-37 -21z"/>
<path d="M6069 4803 c-13 -16 -12 -17 4 -4 16 13 21 21 13 21 -2 0 -10 -8 -17
-17z"/>
<path d="M6007 4765 c-20 -14 -37 -28 -37 -31 0 -2 18 8 40 22 35 23 47 34 37
34 -1 0 -19 -11 -40 -25z"/>
<path d="M5318 4733 c7 -3 16 -2 19 1 4 3 -2 6 -13 5 -11 0 -14 -3 -6 -6z"/>
<path d="M5488 4703 c7 -3 16 -2 19 1 4 3 -2 6 -13 5 -11 0 -14 -3 -6 -6z"/>
<path d="M5658 4673 c6 -2 18 -2 25 0 6 3 1 5 -13 5 -14 0 -19 -2 -12 -5z"/>
<path d="M5750 4660 c14 -4 34 -8 45 -8 16 0 15 2 -5 8 -14 4 -34 8 -45 8 -16
0 -15 -2 5 -8z"/>
<path d="M2490 8400 c0 -5 9 -10 20 -10 18 0 20 -7 20 -80 0 -73 -2 -80 -20
-80 -17 0 -20 -7 -20 -40 0 -22 5 -40 10 -40 6 0 10 -47 10 -120 0 -73 4 -120
10 -120 6 0 10 47 10 120 0 73 4 120 10 120 6 0 10 -47 10 -120 0 -73 4 -120
10 -120 6 0 10 5 10 10 0 6 9 10 20 10 19 0 20 7 20 90 l0 90 48 0 c26 0 53 5
60 12 9 9 12 5 12 -20 0 -30 2 -32 35 -32 24 0 35 5 35 14 0 8 8 17 18 20 9 3
30 17 46 31 16 14 33 25 38 25 4 0 8 7 8 15 0 8 5 15 10 15 6 0 10 40 10 100
l0 100 -40 0 c-22 0 -40 5 -40 10 0 6 -9 10 -20 10 -11 0 -20 -4 -20 -10 0 -5
-9 -10 -20 -10 -11 0 -20 5 -20 10 0 6 -53 10 -140 10 -87 0 -140 -4 -140 -10z
m280 -50 l0 -40 -80 0 -80 0 0 -40 c0 -38 -2 -40 -30 -40 l-30 0 0 80 0 80
110 0 110 0 0 -40z m60 -117 c0 -17 -37 -63 -52 -63 -4 0 -8 7 -8 15 0 8 -4
15 -10 15 -14 0 -13 18 3 35 18 21 67 19 67 -2z"/>
<path d="M3090 8401 c0 -12 56 -25 70 -16 6 4 10 -13 10 -47 1 -42 6 -59 25
-80 13 -16 31 -28 40 -28 10 0 15 -10 15 -30 0 -34 -25 -41 -45 -13 -10 14
-16 15 -27 5 -8 -6 -18 -9 -21 -5 -4 3 -7 -1 -7 -10 0 -9 6 -17 13 -17 18 0
44 -33 39 -50 -3 -9 1 -11 12 -7 10 4 22 7 27 7 20 0 49 42 49 70 0 20 5 30
15 30 8 0 15 4 15 8 0 8 95 28 160 35 19 1 26 9 28 30 3 22 -1 27 -17 27 -14
0 -21 6 -21 20 0 13 -7 20 -20 20 -12 0 -20 7 -20 16 0 39 -23 44 -184 44 -88
0 -156 -4 -156 -9z m170 -41 c0 -5 8 -10 19 -10 10 0 21 -9 24 -20 3 -11 1
-20 -4 -20 -5 0 -9 -9 -9 -20 0 -13 -7 -20 -20 -20 -16 0 -20 7 -20 34 0 19
-3 41 -6 50 -3 9 -1 16 5 16 6 0 11 -4 11 -10z m-49 -87 c13 -17 13 -17 -6 -3
-11 8 -22 16 -24 17 -2 2 0 3 6 3 6 0 17 -8 24 -17z m159 -2 c0 -5 -9 -7 -20
-4 -11 3 -20 7 -20 9 0 2 9 4 20 4 11 0 20 -4 20 -9z"/>
<path d="M3591 8352 c0 -54 1 -56 12 -27 9 23 17 29 35 27 12 -2 22 -10 22
-19 0 -26 25 -8 37 28 11 31 12 26 12 -56 0 -49 -3 -85 -5 -78 -3 7 -12 9 -19
6 -12 -4 -12 -7 1 -21 14 -13 15 -43 9 -231 -3 -119 -9 -232 -13 -251 -4 -19
-5 -129 -2 -244 4 -166 8 -206 17 -194 9 10 12 82 12 264 -1 233 16 767 26
826 l4 26 -74 0 -75 0 1 -56z"/>
<path d="M5120 8395 c0 -9 10 -15 26 -15 14 0 23 -4 19 -10 -3 -5 -1 -10 4
-10 6 0 11 4 11 8 0 5 18 8 41 7 33 -1 47 -8 74 -38 18 -20 30 -38 27 -41 -3
-3 0 -6 6 -6 6 0 14 5 17 10 3 6 1 10 -4 10 -6 0 -11 11 -11 24 0 19 -4 23
-20 19 -20 -5 -28 11 -10 22 5 3 7 12 3 20 -6 17 -53 21 -53 5 0 -5 -18 -10
-40 -10 -22 0 -40 5 -40 10 0 6 -11 10 -25 10 -16 0 -25 -6 -25 -15z"/>
<path d="M5780 8390 c0 -10 -8 -23 -17 -29 -14 -7 -15 -13 -7 -21 9 -9 17 -8
33 2 25 15 30 68 6 68 -8 0 -15 -9 -15 -20z"/>
<path d="M5911 8394 c0 -11 3 -14 6 -6 3 7 2 16 -1 19 -3 4 -6 -2 -5 -13z"/>
<path d="M7470 8386 c0 -27 -19 -59 -21 -36 0 8 -5 2 -11 -13 -16 -44 2 -55
52 -32 30 13 39 23 35 35 -4 14 -1 16 20 12 19 -3 25 0 25 14 0 34 -15 44 -58
42 -35 -1 -42 -5 -42 -22z"/>
<path d="M7570 8400 c0 -6 22 -10 50 -9 28 1 50 6 50 11 0 4 -22 8 -50 8 -27
0 -50 -5 -50 -10z"/>
<path d="M7683 7943 c6 -439 17 -664 38 -758 6 -28 7 -5 4 75 -3 63 -5 348 -5
633 l0 517 -22 0 -21 0 6 -467z"/>
<path d="M7746 8394 c-3 -9 -5 -43 -4 -77 l1 -62 7 50 c4 28 8 42 8 33 1 -10
6 -18 10 -18 5 0 13 -12 19 -27 l11 -28 2 25 2 25 7 -24 c6 -22 8 -23 23 -8 9
10 27 17 40 17 13 0 19 4 13 8 -5 4 -11 24 -13 45 -2 28 1 37 13 37 8 0 15 5
15 10 0 6 -31 10 -74 10 -58 0 -75 -3 -80 -16z"/>
<path d="M7950 8400 c0 -5 5 -10 10 -10 6 0 10 5 10 10 0 6 -4 10 -10 10 -5 0
-10 -4 -10 -10z"/>
<path d="M7216 8374 c-9 -22 -9 -22 20 -40 22 -15 27 -15 35 -3 13 21 11 39
-6 39 -8 0 -15 5 -15 10 0 16 -27 11 -34 -6z"/>
<path d="M5635 8345 c-3 -8 -7 -21 -9 -28 -2 -8 14 -24 35 -38 41 -25 43 -28
33 -53 -7 -18 -34 -22 -34 -5 0 5 -4 7 -10 4 -6 -3 -7 1 -4 9 4 11 0 16 -11
16 -18 0 -45 -23 -45 -38 0 -5 -6 -15 -14 -22 -8 -6 -12 -18 -9 -27 5 -12 7
-12 14 -2 4 8 11 10 15 7 3 -4 15 3 26 15 15 17 18 18 14 5 -4 -15 1 -18 28
-18 35 0 46 13 46 54 0 15 9 27 28 35 l27 13 -22 15 c-13 9 -23 24 -23 34 0
34 -76 55 -85 24z"/>
<path d="M3924 8327 c3 -10 1 -27 -4 -38 -14 -25 1 -25 17 0 9 15 9 23 -3 37
-15 18 -15 18 -10 1z"/>
<path d="M4140 8325 c0 -8 7 -15 15 -15 8 0 15 7 15 15 0 8 -7 15 -15 15 -8 0
-15 -7 -15 -15z"/>
<path d="M5092 8310 c0 -19 2 -27 5 -17 2 9 2 25 0 35 -3 9 -5 1 -5 -18z"/>
<path d="M6687 8316 c-3 -8 -2 -18 3 -21 13 -8 20 9 11 24 -6 10 -10 9 -14 -3z"/>
<path d="M3103 8303 c-7 -2 -13 -20 -13 -39 0 -27 4 -34 20 -34 13 0 20 7 20
20 0 11 7 23 15 26 23 9 18 34 -7 33 -13 0 -29 -3 -35 -6z"/>
<path d="M7006 8297 c3 -8 -2 -20 -11 -27 -8 -7 -15 -24 -15 -38 0 -24 -1 -25
-20 -7 -16 14 -22 15 -35 5 -12 -10 -12 -14 0 -26 7 -8 18 -14 24 -14 5 0 14
-7 19 -16 7 -13 12 -6 21 30 6 25 16 46 22 46 6 0 9 6 6 13 -2 6 0 20 5 30 6
12 5 17 -6 17 -9 0 -13 -6 -10 -13z"/>
<path d="M7129 8261 c-20 -47 -22 -49 -53 -44 -31 5 -33 3 -32 -23 1 -22 7
-29 31 -36 42 -11 49 -6 65 42 15 45 36 62 51 39 13 -21 12 27 -1 52 -18 32
-38 22 -61 -30z"/>
<path d="M7250 8295 c0 -8 3 -15 8 -15 4 0 15 -7 25 -15 17 -12 18 -18 7 -49
-6 -19 -23 -42 -37 -51 -14 -9 -21 -21 -17 -25 21 -20 161 -10 148 11 -3 5 2
12 11 15 13 6 14 8 3 15 -10 7 -10 9 2 9 9 1 6 5 -7 10 -27 11 -30 38 -5 47
36 14 42 30 16 44 -31 16 -57 3 -62 -32 -5 -33 -22 -49 -22 -21 0 12 -5 22
-10 22 -6 0 -15 11 -20 25 -10 27 -40 34 -40 10z"/>
<path d="M7987 8293 c7 -18 63 -17 63 1 0 9 -11 14 -34 13 -23 -1 -32 -5 -29
-14z"/>
<path d="M8240 8294 c0 -10 7 -28 15 -38 15 -20 15 -20 15 0 0 10 -7 28 -15
38 -15 20 -15 20 -15 0z"/>
<path d="M5261 8278 c-8 -13 -19 -18 -32 -15 -24 6 -30 -3 -33 -53 -4 -49 11
-52 42 -10 13 17 29 30 37 30 10 0 15 10 15 29 0 38 -12 46 -29 19z"/>
<path d="M7660 8265 c0 -24 -5 -35 -15 -35 -8 0 -15 -8 -15 -19 0 -10 -6 -24
-14 -30 -11 -10 -16 -8 -21 8 -4 14 -15 21 -31 21 -13 0 -24 5 -24 10 0 18
-61 11 -87 -10 l-26 -20 32 0 c23 0 31 5 31 18 0 10 8 2 18 -18 12 -24 16 -42
10 -58 -23 -66 11 -84 62 -32 16 17 36 30 44 30 7 0 17 7 20 16 3 8 10 12 16
9 6 -4 10 21 10 69 0 42 -2 76 -5 76 -3 0 -5 -16 -5 -35z"/>
<path d="M3752 8260 c0 -19 2 -27 5 -17 2 9 2 25 0 35 -3 9 -5 1 -5 -18z"/>
<path d="M3582 8240 c0 -14 2 -19 5 -12 2 6 2 18 0 25 -3 6 -5 1 -5 -13z"/>
<path d="M3891 8244 c0 -11 3 -14 6 -6 3 7 2 16 -1 19 -3 4 -6 -2 -5 -13z"/>
<path d="M5922 8215 c0 -16 2 -22 5 -12 2 9 2 23 0 30 -3 6 -5 -1 -5 -18z"/>
<path d="M3079 8192 c7 -6 10 -15 7 -21 -4 -6 -2 -11 4 -11 6 0 8 -4 5 -10 -3
-5 -3 -11 2 -11 35 -6 54 -5 59 2 3 5 -1 9 -8 9 -7 0 -18 10 -23 23 -6 13 -21
23 -35 25 -18 2 -21 0 -11 -6z"/>
<path d="M4330 8165 c0 -8 4 -15 10 -15 5 0 7 7 4 15 -4 8 -8 15 -10 15 -2 0
-4 -7 -4 -15z"/>
<path d="M7868 8173 c7 -3 16 -2 19 1 4 3 -2 6 -13 5 -11 0 -14 -3 -6 -6z"/>
<path d="M7186 8162 c-3 -6 -1 -14 5 -17 14 -9 20 -2 10 14 -6 8 -11 9 -15 3z"/>
<path d="M2948 8143 c12 -2 32 -2 45 0 12 2 2 4 -23 4 -25 0 -35 -2 -22 -4z"/>
<path d="M5610 8135 c0 -8 0 -18 -1 -22 0 -4 4 -9 9 -11 16 -5 20 22 6 36 -12
10 -14 10 -14 -3z"/>
<path d="M8018 8138 c8 -8 17 -8 34 0 22 10 21 11 -11 11 -27 1 -32 -2 -23
-11z"/>
<path d="M7165 8110 c3 -5 8 -10 11 -10 2 0 4 5 4 10 0 6 -5 10 -11 10 -5 0
-7 -4 -4 -10z"/>
<path d="M7230 8078 c0 -25 3 -29 10 -18 13 20 13 50 0 50 -5 0 -10 -15 -10
-32z"/>
<path d="M5850 8061 c0 -12 5 -21 10 -21 6 0 10 6 10 14 0 8 -4 18 -10 21 -5
3 -10 -3 -10 -14z"/>
<path d="M7090 8060 c0 -5 5 -10 10 -10 6 0 10 5 10 10 0 6 -4 10 -10 10 -5 0
-10 -4 -10 -10z"/>
<path d="M4823 7920 c0 -47 2 -66 4 -42 2 23 2 61 0 85 -2 23 -4 4 -4 -43z"/>
<path d="M3742 7935 c0 -16 2 -22 5 -12 2 9 2 23 0 30 -3 6 -5 -1 -5 -18z"/>
<path d="M7521 7944 c0 -11 3 -14 6 -6 3 7 2 16 -1 19 -3 4 -6 -2 -5 -13z"/>
<path d="M2690 7880 c0 -29 1 -29 20 -13 11 10 20 23 20 30 0 7 -9 13 -20 13
-16 0 -20 -7 -20 -30z"/>
<path d="M3522 7800 c0 -14 2 -19 5 -12 2 6 2 18 0 25 -3 6 -5 1 -5 -13z"/>
<path d="M2530 7715 c0 -8 -9 -15 -20 -15 -16 0 -20 -7 -20 -30 0 -23 4 -30
20 -30 11 0 20 -7 20 -15 0 -8 5 -15 10 -15 6 0 10 7 10 15 0 8 5 15 10 15 6
0 10 14 10 30 0 17 -4 30 -10 30 -5 0 -10 7 -10 15 0 8 -4 15 -10 15 -5 0 -10
-7 -10 -15z"/>
<path d="M2610 7655 c0 -19 3 -35 8 -36 4 0 33 -2 65 -4 32 -3 66 -9 77 -15
24 -13 67 -13 75 0 3 6 22 -1 45 -16 32 -22 46 -25 79 -19 50 8 54 25 6 25
-21 0 -35 5 -35 13 0 8 -4 7 -10 -3 -5 -8 -10 -10 -10 -4 0 6 -22 21 -50 34
-27 13 -50 27 -50 31 0 5 -21 8 -47 7 -29 -2 -48 2 -51 10 -2 7 -23 12 -53 12
l-49 0 0 -35z"/>
<path d="M4038 7633 c6 -2 18 -2 25 0 6 3 1 5 -13 5 -14 0 -19 -2 -12 -5z"/>
<path d="M2570 7500 c0 -40 -4 -70 -10 -70 -5 0 -10 -18 -10 -40 0 -33 -3 -40
-20 -40 -18 0 -20 -7 -20 -55 0 -30 5 -55 10 -55 6 0 10 11 10 25 0 14 5 25
10 25 6 0 10 -13 10 -30 0 -25 4 -30 25 -30 28 0 44 25 26 43 -6 6 -11 26 -11
44 0 18 -4 33 -10 33 -5 0 -10 18 -10 40 0 39 1 40 35 40 24 0 35 5 35 15 0 8
-7 15 -15 15 -8 0 -15 5 -15 10 0 6 7 10 15 10 9 0 18 7 21 15 4 8 11 12 16 9
6 -4 2 6 -7 20 -19 29 -45 46 -69 46 -13 0 -16 -13 -16 -70z"/>
<path d="M2820 7482 c0 -15 22 -30 37 -25 11 4 10 8 -4 19 -21 15 -33 18 -33
6z"/>
<path d="M2955 7480 c-3 -5 -2 -10 4 -10 5 0 13 5 16 10 3 6 2 10 -4 10 -5 0
-13 -4 -16 -10z"/>
<path d="M2660 7470 c0 -5 7 -10 15 -10 8 0 15 5 15 10 0 6 -7 10 -15 10 -8 0
-15 -4 -15 -10z"/>
<path d="M2883 7456 c0 -11 1 -15 4 -8 3 6 9 10 14 6 5 -3 9 -1 9 4 0 21 -26
19 -27 -2z"/>
<path d="M2930 7445 c0 -8 7 -15 15 -15 8 0 15 7 15 15 0 8 -7 15 -15 15 -8 0
-15 -7 -15 -15z"/>
<path d="M3467 7436 c-4 -10 -5 -21 -2 -24 9 -9 17 6 13 25 -3 17 -4 17 -11
-1z"/>
<path d="M3026 7405 c-4 -10 1 -15 16 -15 17 0 18 2 8 15 -7 8 -14 15 -15 15
-2 0 -5 -7 -9 -15z"/>
<path d="M3308 7383 c7 -3 16 -2 19 1 4 3 -2 6 -13 5 -11 0 -14 -3 -6 -6z"/>
<path d="M3205 7320 c3 -5 8 -10 11 -10 2 0 4 5 4 10 0 6 -5 10 -11 10 -5 0
-7 -4 -4 -10z"/>
<path d="M3372 7300 c0 -14 2 -19 5 -12 2 6 2 18 0 25 -3 6 -5 1 -5 -13z"/>
<path d="M3450 7300 c0 -11 2 -20 4 -20 2 0 6 9 9 20 3 11 1 20 -4 20 -5 0 -9
-9 -9 -20z"/>
<path d="M3497 7313 c-3 -5 -1 -17 4 -28 7 -17 8 -17 8 8 1 27 -4 34 -12 20z"/>
<path d="M3351 7294 c0 -11 3 -14 6 -6 3 7 2 16 -1 19 -3 4 -6 -2 -5 -13z"/>
<path d="M2810 7285 c0 -8 7 -15 15 -15 8 0 15 7 15 15 0 8 -7 15 -15 15 -8 0
-15 -7 -15 -15z"/>
<path d="M2700 7256 c0 -8 10 -17 23 -19 18 -3 16 -5 -8 -6 l-30 -3 30 -13
c39 -18 55 -18 55 -1 0 8 7 16 15 20 8 3 15 12 15 21 0 11 -12 15 -50 15 -37
0 -50 -4 -50 -14z"/>
<path d="M3420 7045 c0 -14 4 -25 9 -25 4 0 6 11 3 25 -2 14 -6 25 -8 25 -2 0
-4 -11 -4 -25z"/>
<path d="M2527 6863 c12 -2 27 -11 33 -19 17 -20 29 -18 23 4 -3 14 -14 19
-41 19 -20 0 -27 -2 -15 -4z"/>
<path d="M2525 6830 c-3 -5 1 -10 10 -10 9 0 13 5 10 10 -3 6 -8 10 -10 10 -2
0 -7 -4 -10 -10z"/>
<path d="M4814 5991 c-67 -24 -150 -79 -196 -128 -34 -38 -98 -150 -98 -173 0
-22 16 -7 45 42 83 143 214 236 345 246 58 4 68 7 59 18 -16 20 -94 17 -155
-5z"/>
<path d="M4108 5833 c-39 -25 -53 -63 -38 -107 25 -77 107 -101 161 -47 42 42
40 92 -5 137 -38 38 -75 44 -118 17z"/>
<path d="M190 4839 c47 -4 112 -7 145 -6 l60 0 -70 7 c-38 4 -104 7 -145 7
l-75 0 85 -8z"/>
<path d="M7055 3305 c0 -286 1 -402 2 -257 2 145 2 379 0 520 -1 141 -2 23 -2
-263z"/>
<path d="M6897 3185 c6 -179 8 -203 14 -209 7 -8 -2 265 -11 319 -5 31 -6 -10
-3 -110z"/>
<path d="M18 1873 c7 -3 16 -2 19 1 4 3 -2 6 -13 5 -11 0 -14 -3 -6 -6z"/>
<path d="M92 1480 c-79 -16 -101 -25 -91 -34 4 -4 173 36 202 47 26 11 -31 4
-111 -13z"/>
<path d="M2373 1253 c-4 -10 9 -30 39 -57 94 -84 199 -265 240 -413 20 -70 22
-101 22 -293 -1 -228 -15 -327 -64 -438 -25 -55 -25 -52 5 -52 32 0 46 28 84
165 25 89 32 133 37 263 11 257 -19 398 -127 597 -80 148 -217 279 -236 228z"/>
<path d="M7410 690 c37 -12 290 -12 290 0 0 6 -59 10 -157 9 -95 -1 -148 -4
-133 -9z"/>
<path d="M7738 683 c7 -3 16 -2 19 1 4 3 -2 6 -13 5 -11 0 -14 -3 -6 -6z"/>
<path d="M8303 683 c20 -2 54 -2 75 0 20 2 3 4 -38 4 -41 0 -58 -2 -37 -4z"/>
<path d="M3807 656 c-12 -30 43 -325 101 -546 26 -100 28 -105 55 -108 24 -3
28 0 23 15 -33 107 -113 472 -122 553 -4 36 -11 73 -16 83 -11 21 -34 22 -41
3z"/>
</g>
</svg>
