<?xml version="1.0" standalone="no"?>
<!DOCTYPE svg PUBLIC "-//W3C//DTD SVG 20010904//EN"
 "http://www.w3.org/TR/2001/REC-SVG-20010904/DTD/svg10.dtd">
<svg version="1.0" xmlns="http://www.w3.org/2000/svg"
 width="128.000000pt" height="128.000000pt" viewBox="0 0 128.000000 128.000000"
 preserveAspectRatio="xMidYMid meet">

<g transform="translate(0.000000,128.000000) scale(0.100000,-0.100000)"
fill="#000000" stroke="none">
<path d="M77 1098 c-4 -99 -7 -319 -7 -487 0 -281 -2 -311 -20 -364 -31 -87
-20 -232 18 -245 6 -2 4 10 -6 30 -44 85 -2 250 97 381 72 96 95 151 127 304
14 70 31 136 36 147 7 12 6 22 -1 29 -6 6 -11 24 -11 39 0 25 7 31 55 53 30
13 55 27 55 31 0 3 -7 4 -15 0 -12 -4 -13 -2 -2 14 6 11 23 20 36 20 30 0 101
-70 101 -100 0 -20 -4 -22 -32 -16 -113 22 -168 17 -168 -17 0 -5 9 -2 20 8
20 18 29 18 148 -1 39 -6 42 -5 42 15 0 26 -15 58 -42 87 l-19 21 45 12 c95
24 220 1 291 -53 19 -15 49 -29 67 -32 46 -9 115 -50 123 -74 5 -17 14 -20 53
-18 43 1 44 2 10 5 -28 3 -43 12 -59 34 -20 28 -20 37 -14 194 6 121 5 165 -4
165 -8 0 -11 -49 -11 -164 l0 -165 -40 17 -40 17 0 149 c0 82 -3 146 -7 142
-4 -3 -6 -55 -5 -114 1 -99 0 -105 -12 -75 -19 41 -44 54 -103 50 l-48 -2 -2
69 c-3 93 -13 98 -13 7 0 -66 -2 -74 -27 -96 -18 -16 -41 -25 -63 -25 -19 0
-52 -4 -73 -9 l-39 -9 6 34 c4 20 3 34 -3 34 -5 0 -11 -17 -13 -37 -3 -38 -3
-38 -49 -38 -25 0 -53 -6 -62 -14 -15 -12 -17 -10 -17 23 0 22 4 35 10 31 6
-3 10 -1 10 4 0 6 -4 11 -9 11 -4 0 -8 28 -9 63 0 45 2 56 9 40 4 -13 14 -23
20 -23 8 0 7 5 -2 17 -8 9 -9 14 -2 10 11 -7 38 13 45 33 2 6 11 8 22 4 14 -5
15 -9 4 -15 -9 -6 -7 -9 9 -9 12 0 25 5 29 12 5 8 10 6 15 -8 7 -16 8 -15 8 7
l1 27 -105 1 -105 2 0 -146 c0 -134 -2 -147 -21 -166 l-21 -21 4 166 3 166
-106 0 -106 0 -6 -182z m788 -9 c16 -30 20 -69 7 -69 -4 0 -24 13 -44 30 -47
39 -85 53 -106 40 -13 -7 -9 -9 20 -10 20 0 40 -5 43 -11 13 -20 -4 -21 -55
-3 -50 18 -50 18 -30 38 19 19 21 19 72 3 39 -12 48 -13 35 -3 -13 10 -15 15
-5 18 24 8 49 -4 63 -33z m35 -84 c0 -8 -7 -15 -16 -15 -14 0 -14 3 -4 15 7 8
14 15 16 15 2 0 4 -7 4 -15z m-599 -153 c-9 -25 -9 -24 -10 18 0 36 2 41 10
27 7 -12 7 -27 0 -45z"/>
<path d="M557 1260 c3 -11 7 -20 9 -20 2 0 4 9 4 20 0 11 -4 20 -9 20 -5 0 -7
-9 -4 -20z"/>
<path d="M1125 1267 c-21 -24 -26 -37 -13 -32 15 6 42 45 31 45 -5 -1 -13 -6
-18 -13z"/>
<path d="M1160 1265 c0 -8 -4 -15 -10 -15 -5 0 -10 -5 -10 -11 0 -5 5 -7 10
-4 6 4 10 -9 10 -32 0 -28 3 -34 10 -23 5 8 10 32 10 53 0 23 4 36 10 32 6 -3
10 -1 10 4 0 6 -9 11 -20 11 -11 0 -20 -7 -20 -15z"/>
<path d="M856 1253 c-6 -14 -5 -15 5 -6 7 7 10 15 7 18 -3 3 -9 -2 -12 -12z"/>
<path d="M522 1175 c0 -16 2 -22 5 -12 2 9 2 23 0 30 -3 6 -5 -1 -5 -18z"/>
<path d="M556 1153 c10 -40 14 -41 14 -5 0 18 -5 32 -10 32 -6 0 -8 -11 -4
-27z"/>
<path d="M400 1166 c0 -2 7 -6 15 -10 8 -3 15 -1 15 4 0 6 -7 10 -15 10 -8 0
-15 -2 -15 -4z"/>
<path d="M810 953 c0 -4 -10 -13 -22 -18 -17 -7 -31 -33 -54 -102 l-31 -92
-33 34 c-19 19 -39 35 -44 35 -6 0 2 -10 17 -21 64 -48 74 -120 26 -192 -17
-26 -35 -47 -40 -47 -5 0 -9 -5 -9 -12 0 -7 15 2 33 20 l32 31 75 -20 c122
-34 117 -36 127 63 l5 46 -39 -4 c-43 -6 -135 16 -140 32 -2 6 12 14 32 17 20
3 68 21 107 38 69 32 70 33 65 66 -3 18 -1 35 4 38 5 4 9 21 8 38 l-1 32 -8
-33 c-4 -18 -9 -35 -11 -37 -7 -7 -74 61 -74 75 0 7 -6 15 -12 18 -7 2 -13 0
-13 -5z m20 -48 c34 -18 70 -61 70 -85 0 -17 -82 -60 -142 -75 -24 -6 -28 -4
-28 14 0 38 51 161 67 161 2 0 17 -7 33 -15z m-60 -235 c19 -6 50 -11 68 -12
41 -2 48 -16 32 -63 -10 -31 -16 -36 -34 -31 -11 4 -49 13 -83 22 -55 14 -61
18 -53 34 6 10 10 28 10 39 0 24 10 25 60 11z"/>
<path d="M830 869 c0 -29 18 -59 35 -59 20 0 19 30 -1 58 -19 28 -34 28 -34 1z"/>
<path d="M759 830 c-10 -32 -10 -43 0 -53 18 -17 41 17 41 60 0 48 -26 43 -41
-7z"/>
<path d="M620 875 c0 -8 7 -15 15 -15 8 0 15 7 15 15 0 8 -7 15 -15 15 -8 0
-15 -7 -15 -15z"/>
<path d="M1155 879 c-29 -7 -29 -7 8 -8 43 -1 47 -16 22 -78 -11 -28 -31 -48
-73 -75 -52 -34 -58 -41 -54 -66 9 -65 -65 -292 -134 -410 -25 -43 -28 -55
-25 -129 3 -90 -5 -103 -68 -103 -46 0 -43 27 11 94 27 33 48 64 48 70 0 12 1
13 -69 -76 -69 -87 -82 -92 -76 -30 3 38 3 41 -4 17 -5 -16 -9 -42 -10 -57 -1
-23 3 -28 24 -28 18 0 23 4 19 15 -4 8 -2 15 4 15 5 0 12 -7 16 -15 4 -11 21
-15 61 -15 l55 0 0 96 c0 142 -12 134 198 136 l177 2 -173 3 c-96 2 -172 7
-170 11 2 4 14 31 27 60 l23 52 144 0 c89 0 144 4 144 10 0 6 -52 10 -135 10
-86 0 -135 4 -135 10 0 6 7 27 15 47 17 40 39 133 49 203 6 40 12 49 58 80 53
37 78 77 78 129 0 33 -13 40 -55 30z"/>
<path d="M382 159 c19 -25 23 -42 22 -97 -1 -43 1 -60 7 -47 14 36 9 95 -11
135 -11 22 -25 40 -31 40 -5 0 1 -14 13 -31z"/>
<path d="M2 100 c0 -14 2 -19 5 -12 2 6 2 18 0 25 -3 6 -5 1 -5 -13z"/>
<path d="M585 60 c4 -25 10 -49 15 -54 5 -4 4 11 -1 35 -14 63 -20 72 -14 19z"/>
</g>
</svg>
